# xmcd
#
# Track frame offsets: 
#        150
#        10831
#        23886
#        36965
#        48419
#        59287
#        73897
#        86510
#        96330
#        106080
#        119014
#        133497
#        145230
#        158467
#        169893
#        181767
#
# Disc length: 2600 seconds
#
# Revision: 0
# Processed by: cddbd v1.5.2PL0 Copyright (c) Steve Scherf et al.
# Submitted via: ExactAudioCopy v1.0b4
#
DISCID=dd0a2610
DTITLE=Little Milton - Raise A Little Sand (LP)
DYEAR=1975
DGENRE=Blues
TTITLE0=Homesick For My Baby
TTITLE1=Somebody Told Me
TTITLE2=Lonesome For My Baby
TTITLE3=If You Love Me
TTITLE4=Begging My Baby
TTITLE5=Lets Boogie Baby
TTITLE6=Love At First Sight
TTITLE7=Hold Me Tight
TTITLE8=I'm Trying
TTITLE9=Dead Love
TTITLE10=I Found Me A New Love
TTITLE11=Long Distance Operator
TTITLE12=That Will Never Do
TTITLE13=My Baby Pleases Me
TTITLE14=Same Old Blues
TTITLE15=I'm A Lonely Man
EXTD=
EXTT0=
EXTT1=
EXTT2=
EXTT3=
EXTT4=
EXTT5=
EXTT6=
EXTT7=
EXTT8=
EXTT9=
EXTT10=
EXTT11=
EXTT12=
EXTT13=
EXTT14=
EXTT15=
PLAYORDER=
